<?xml version="1.0" encoding="utf-8"?>
<!-- Generator: Adobe Illustrator 26.0.0, SVG Export Plug-In . SVG Version: 6.00 Build 0)  -->
<svg version="1.1" id="Camada_1" xmlns="http://www.w3.org/2000/svg" xmlns:xlink="http://www.w3.org/1999/xlink" x="0px" y="0px"
	 viewBox="0 0 1080 1080" style="enable-background:new 0 0 1080 1080;" xml:space="preserve">
<style type="text/css">
	.st0{fill:url(#SVGID_1_);}
	.st1{clip-path:url(#SVGID_00000005961397232703630420000006873712361648535692_);}
	.st2{fill:#010202;stroke:#000000;stroke-width:6;stroke-miterlimit:10;}
	.st3{fill:url(#SVGID_00000181063124543702253850000001151535004217398913_);}
	.st4{fill:#FFFFFF;}
	.st5{font-family:'Exo2-Bold';}
	.st6{font-size:392.6548px;}
	.st7{letter-spacing:-42;}
	.st8{font-family:'Exo2-Regular';}
	.st9{font-size:69.0012px;}
	.st10{letter-spacing:13;}
	.st11{letter-spacing:2;}
	.st12{font-size:49.5167px;}
	.st13{fill:url(#SVGID_00000090264869573659336720000009231856229643822770_);}
	.st14{fill:url(#SVGID_00000074418234309622120440000011328298105055626164_);}
	.st15{fill:#406FB5;}
	.st16{fill:none;stroke:#000000;stroke-miterlimit:10;}
	.st17{fill:#CDA26F;}
	.st18{fill:none;stroke:#000000;stroke-width:12;stroke-miterlimit:10;}
	.st19{fill:#FFFFFF;stroke:#FFFFFF;stroke-width:2;stroke-miterlimit:10;}
	.st20{fill:none;stroke:#000000;stroke-width:45;stroke-linecap:round;stroke-linejoin:round;stroke-miterlimit:10;}
	.st21{fill:#010202;}
	.st22{fill:none;}
	.st23{fill:none;stroke:#616160;stroke-width:50;stroke-miterlimit:10;}
	.st24{stroke:#000000;stroke-width:45;stroke-miterlimit:10;}
	.st25{clip-path:url(#SVGID_00000128449692545739517520000017695416459023971770_);}
	.st26{fill:none;stroke:#010202;stroke-width:50;stroke-miterlimit:10;}
	.st27{clip-path:url(#SVGID_00000138542767309830231930000002981632786792821138_);}
</style>
<linearGradient id="SVGID_1_" gradientUnits="userSpaceOnUse" x1="-9.094947e-13" y1="540" x2="1080" y2="540">
	<stop  offset="0" style="stop-color:#28AD7A"/>
	<stop  offset="0.1402" style="stop-color:#20A483"/>
	<stop  offset="0.4232" style="stop-color:#088E94"/>
	<stop  offset="0.8194" style="stop-color:#14659D"/>
	<stop  offset="1" style="stop-color:#21509A"/>
</linearGradient>
<rect x="0" y="0" class="st0" width="1080" height="1080"/>
<g>
	<text transform="matrix(1 0 0 1 206.865 569.774)" class="st4 st5 st6 st7">UBL</text>
</g>
<g>
	<g>
		<text transform="matrix(1 0 0 1 235.0429 686.9137)" class="st4 st8 st9 st10">UNIVERSIDADE</text>
	</g>
	<text transform="matrix(1 0 0 1 233.9408 761.3199)" class="st4 st5 st9 st11">BRASILEIRA LIVRE</text>
</g>
<g>
	<text transform="matrix(1 0 0 1 234.8173 828.3981)" class="st4 st8 st12 st11">Ciência da Computação</text>
</g>
<g>
	<defs>
		<path id="SVGID_00000088094291136175102320000008840377213107366331_" d="M1799.92-2539.95
			c-23.54-55.65-57.23-105.63-100.15-148.55s-92.89-76.61-148.55-100.15c-57.62-24.37-118.83-36.73-181.91-36.73
			c-63.09,0-124.29,12.36-181.91,36.73c-55.65,23.54-105.63,57.23-148.55,100.15c-42.92,42.92-76.61,92.89-100.15,148.55
			c-24.37,57.62-36.73,118.83-36.73,181.91c0,63.09,12.36,124.29,36.73,181.91c23.54,55.65,57.23,105.63,100.15,148.55
			c42.92,42.92,92.89,76.61,148.55,100.15c57.62,24.37,118.83,36.73,181.91,36.73c63.09,0,124.29-12.36,181.91-36.73
			c55.65-23.54,105.63-57.23,148.55-100.15c42.92-42.92,76.61-92.89,100.15-148.55c24.37-57.62,36.73-118.83,36.73-181.91
			C1836.65-2421.12,1824.29-2482.32,1799.92-2539.95z"/>
	</defs>
	<clipPath id="SVGID_00000171701105095323022470000010466633464503881129_">
		<use xlink:href="#SVGID_00000088094291136175102320000008840377213107366331_"  style="overflow:visible;"/>
	</clipPath>
	<g style="clip-path:url(#SVGID_00000171701105095323022470000010466633464503881129_);">
		<g>
			<g>
				<g>
					<polygon class="st21" points="1234.63,1178.68 1234.63,1874.69 1217.54,1874.69 1217.54,1185.76 1136.79,1105.02 
						1136.79,855.76 871.66,590.63 871.66,-689.3 548.34,-1012.63 560.43,-1024.72 888.75,-696.38 888.75,583.55 1153.88,848.68 
						1153.88,1097.94 					"/>
					<polygon points="1249.34,1889.39 1202.84,1889.39 1202.84,1191.85 1122.09,1111.11 1122.09,861.85 856.96,596.72 
						856.96,-683.21 527.55,-1012.63 560.43,-1045.51 903.45,-702.47 903.45,577.46 1168.59,842.59 1168.59,1091.85 
						1249.34,1172.59 					"/>
				</g>
			</g>
		</g>
		<g>
			<g>
				<g>
					<polygon class="st21" points="1559.18,254.43 1559.18,1001.55 1542.09,1001.55 1542.09,261.5 1206.88,-73.71 1206.88,-1347.55 
						722.32,-1832.12 722.32,-3648.84 739.41,-3648.84 739.41,-1839.2 1223.97,-1354.63 1223.97,-80.79 					"/>
					<polygon points="1573.89,1016.25 1527.39,1016.25 1527.39,267.59 1192.18,-67.62 1192.18,-1341.46 707.62,-1826.03 
						707.62,-3663.54 754.12,-3663.54 754.12,-1845.29 1238.67,-1360.72 1238.67,-86.88 1573.89,248.34 					"/>
				</g>
			</g>
		</g>
		<g>
		</g>
		<g>
			<g>
				<g>
					<polygon class="st21" points="889.1,199.93 877.02,212.02 515.08,-149.93 515.08,-780.73 297.21,-998.62 297.21,-2789.45 
						314.3,-2789.45 314.3,-1005.7 532.17,-787.81 532.17,-157 					"/>
					<polygon points="877.02,232.81 500.38,-143.84 500.38,-774.64 282.51,-992.53 282.51,-2804.15 329,-2804.15 329,-1011.78 
						546.88,-793.9 546.88,-163.09 909.9,199.93 					"/>
				</g>
			</g>
		</g>
		<g>
			<g>
				<g>
					<polygon class="st21" points="1153.9,1482.56 1153.9,1778.95 1001.62,1931.25 989.53,1919.16 1136.81,1771.88 1136.81,1489.63 
						560.83,913.65 560.83,493.1 112.86,45.11 112.86,-546.51 129.95,-546.51 129.95,38.03 577.92,486.02 577.92,906.57 					"/>
					<polygon points="1001.62,1952.04 968.74,1919.16 1122.11,1765.79 1122.11,1495.72 546.13,919.74 546.13,499.19 98.16,51.2 
						98.16,-561.21 144.65,-561.21 144.65,31.94 592.62,479.93 592.62,900.48 1168.6,1476.47 1168.6,1785.04 					"/>
				</g>
			</g>
		</g>
		<g>
			<g>
				<g>
					<polygon class="st21" points="1001.5,1046.79 1001.5,1333.74 984.41,1333.74 984.41,1053.87 731.46,800.94 731.46,550.59 
						748.56,550.59 748.56,793.86 					"/>
					<polygon points="1016.2,1348.44 969.71,1348.44 969.71,1059.96 716.76,807.03 716.76,535.89 763.26,535.89 763.26,787.77 
						1016.2,1040.7 					"/>
				</g>
			</g>
			<g>
				<g>
					<path class="st21" d="M772.15,552.2c0-17.74-14.39-32.13-32.13-32.13c-17.75,0-32.13,14.39-32.13,32.13
						c0,17.75,14.39,32.13,32.13,32.13C757.76,584.33,772.15,569.94,772.15,552.2z"/>
					<path d="M740.01,599.03c-25.83,0-46.84-21.01-46.84-46.83c0-25.83,21.01-46.83,46.84-46.83c25.83,0,46.83,21.01,46.83,46.83
						C786.85,578.02,765.84,599.03,740.01,599.03z M740.01,534.77c-9.61,0-17.43,7.82-17.43,17.43c0,9.61,7.82,17.43,17.43,17.43
						c9.61,0,17.43-7.82,17.43-17.43C757.44,542.59,749.62,534.77,740.01,534.77z"/>
				</g>
			</g>
		</g>
		<g>
			<g>
				<g>
					<polygon class="st21" points="401.16,-327.64 401.16,312.84 384.07,312.84 384.07,-320.56 251.5,-453.12 251.5,-817.29 
						192.55,-876.26 204.64,-888.35 268.6,-824.37 268.6,-460.2 					"/>
					<polygon points="415.86,327.54 369.36,327.54 369.36,-314.47 236.8,-447.03 236.8,-811.2 171.76,-876.26 204.64,-909.14 
						283.3,-830.46 283.3,-466.29 415.86,-333.73 					"/>
				</g>
			</g>
		</g>
		<g>
			<g>
				<g>
					<polygon class="st21" points="724.18,38.57 724.18,246.28 627.46,342.99 615.37,330.9 707.09,239.2 707.09,38.57 					"/>
					<polygon points="627.46,363.78 594.58,330.9 692.38,233.11 692.38,23.87 738.88,23.87 738.88,252.37 					"/>
				</g>
			</g>
			<g>
				<g>
					<path class="st21" d="M599.83,313.09c-12.55,12.54-12.55,32.9,0,45.44c12.55,12.55,32.9,12.55,45.44,0
						c12.55-12.55,12.55-32.9,0-45.44C632.73,300.54,612.38,300.54,599.83,313.09z"/>
					<path d="M622.55,382.64C622.55,382.64,622.55,382.64,622.55,382.64c-12.51,0-24.28-4.87-33.12-13.72
						c-8.84-8.85-13.72-20.61-13.71-33.12c0-12.51,4.87-24.27,13.72-33.12l0,0c0,0,0,0,0,0c8.84-8.84,20.6-13.71,33.11-13.71
						c0,0,0,0,0.01,0c12.51,0,24.27,4.87,33.12,13.72c18.26,18.26,18.26,47.97,0,66.23C646.82,377.77,635.06,382.64,622.55,382.64z
						 M622.55,318.38c-4.66,0-9.03,1.81-12.32,5.1l0,0c-3.29,3.29-5.1,7.67-5.1,12.32c0,4.66,1.81,9.04,5.1,12.33
						c3.29,3.29,7.67,5.1,12.33,5.11c0,0,0,0,0,0c4.66,0,9.03-1.81,12.33-5.1c6.8-6.8,6.8-17.86,0-24.65
						C631.59,320.19,627.21,318.38,622.55,318.38C622.55,318.38,622.55,318.38,622.55,318.38z"/>
				</g>
			</g>
		</g>
		<g>
			<g>
				<g>
					<polygon class="st21" points="1272.31,417.78 1272.31,913.46 1151.87,1033.9 1139.78,1021.82 1255.22,906.38 1255.22,424.86 
						1001.55,171.2 1001.55,-517.88 1018.65,-517.88 1018.65,164.12 					"/>
					<polygon points="1151.86,1054.69 1118.99,1021.82 1240.51,900.29 1240.51,430.95 986.85,177.29 986.85,-532.58 
						1033.35,-532.58 1033.35,158.03 1287.01,411.69 1287.01,919.55 					"/>
				</g>
			</g>
		</g>
		<g>
			<g>
				<g>
					<rect x="1028.69" y="440.61" class="st21" width="17.09" height="302.71"/>
					<rect x="1013.99" y="425.91" width="46.5" height="332.11"/>
				</g>
			</g>
			<g>
				<g>
					<path class="st21" d="M1069.38,442.22c0-17.74-14.39-32.13-32.13-32.13c-17.74,0-32.13,14.39-32.13,32.13
						s14.39,32.13,32.13,32.13C1054.99,474.35,1069.38,459.96,1069.38,442.22z"/>
					<path d="M1037.24,489.05c-25.83,0-46.83-21.01-46.83-46.83s21.01-46.83,46.83-46.83s46.84,21.01,46.84,46.83
						S1063.07,489.05,1037.24,489.05z M1037.24,424.79c-9.61,0-17.43,7.82-17.43,17.43s7.82,17.43,17.43,17.43
						c9.61,0,17.43-7.82,17.43-17.43S1046.86,424.79,1037.24,424.79z"/>
				</g>
			</g>
		</g>
	</g>
</g>
<g>
	<defs>
		<path id="SVGID_00000135668729322727846060000002723374595235300775_" d="M2631.3-3798.41
			c-23.54-55.65-57.23-105.63-100.15-148.55c-42.92-42.92-92.89-76.61-148.55-100.15c-57.62-24.37-118.83-36.73-181.91-36.73
			s-124.29,12.36-181.91,36.73c-55.65,23.54-105.63,57.23-148.55,100.15c-42.92,42.92-76.61,92.89-100.15,148.55
			c-24.37,57.62-36.73,118.83-36.73,181.91c0,63.09,12.36,124.29,36.73,181.91c23.54,55.65,57.23,105.63,100.15,148.55
			c42.92,42.92,92.89,76.61,148.55,100.15c57.62,24.37,118.83,36.73,181.91,36.73s124.29-12.36,181.91-36.73
			c55.65-23.54,105.63-57.23,148.55-100.15c42.92-42.92,76.61-92.89,100.15-148.55c24.37-57.62,36.73-118.83,36.73-181.91
			C2668.03-3679.58,2655.67-3740.79,2631.3-3798.41z"/>
	</defs>
	<clipPath id="SVGID_00000023963474667538438560000015177002937001327510_">
		<use xlink:href="#SVGID_00000135668729322727846060000002723374595235300775_"  style="overflow:visible;"/>
	</clipPath>
	<g style="clip-path:url(#SVGID_00000023963474667538438560000015177002937001327510_);">
		<g>
			<g>
				<g>
					<polygon class="st21" points="1985.29,224.1 1985.29,520.49 1833,672.79 1820.92,660.7 1968.19,513.41 1968.19,231.17 
						1392.21,-344.82 1392.21,-765.36 944.24,-1213.35 944.24,-1804.97 961.34,-1804.97 961.34,-1220.43 1409.31,-772.44 
						1409.31,-351.89 					"/>
					<polygon points="1833,693.58 1800.13,660.7 1953.49,507.33 1953.49,237.26 1377.51,-338.73 1377.51,-759.27 929.54,-1207.26 
						929.54,-1819.68 976.04,-1819.68 976.04,-1226.52 1424.01,-778.53 1424.01,-357.98 1999.99,218.01 1999.99,526.58 					"/>
				</g>
			</g>
		</g>
	</g>
</g>
</svg>
